<svg width="480" height="565" viewBox="0 0 480 565" fill="none" xmlns="http://www.w3.org/2000/svg">
<g clip-path="url(#clip0_1879_7334)">
<path d="M109.69 557.786C109.69 557.783 109.692 557.781 109.689 557.781C109.574 557.794 67.9845 562.586 64.3296 530.211C60.6696 497.791 65.9496 454.891 80.2396 413.531C91.8915 379.806 104.122 345.743 108.24 334.315C108.946 332.358 107.493 330.301 105.413 330.301H33.7649C32.5361 330.301 31.453 330.998 31.0103 332.144C25.9003 345.377 -4.5632 426.591 0.579562 469.191C6.18947 515.66 14.5393 560.419 109.685 557.791C109.687 557.791 109.69 557.789 109.69 557.786V557.786Z" fill="#006DB5"/>
<path d="M165.348 555.762C165.349 555.761 165.348 555.76 165.35 555.76C165.404 555.764 192.02 557.537 221.69 544.95C251.39 532.35 332.41 503.33 382.12 442.4C431.83 381.47 475.74 308.27 479.31 223C482.88 137.73 437.43 41.72 345.52 10.06C257.097 -20.3987 155.902 20.9838 107.889 98.2788C106.285 100.86 109.248 103.886 111.994 102.585C148.769 85.1745 200.42 80.0621 222.2 80.53C245.94 81.04 311.31 86.9999 349.77 140.79C388.23 194.58 396.41 255.85 369.17 337.9C341.932 419.943 208.113 560.046 165.351 555.771C165.346 555.771 165.345 555.765 165.348 555.762V555.762Z" fill="#E31F25"/>
<path d="M54.0693 551.877C54.0693 551.873 54.0662 551.869 54.0696 551.87C54.2121 551.901 110.04 563.969 157.729 539.36C205.479 514.72 273.899 441.7 283.089 362.81C292.279 283.92 258.149 234.04 195.519 218.72C140.933 205.368 85.2985 219.43 57.9387 233.631C55.1711 235.067 51.8361 232.057 53.4476 229.388C73.6228 195.967 128.374 133.666 206.499 139.15C293.819 145.28 329.049 191.24 340.539 213.45C352.029 235.66 375.769 299.24 335.939 390.39C296.109 481.54 238.409 526.48 197.559 545.88C156.71 565.28 94.7522 573.88 54.0721 551.882C54.0704 551.881 54.0693 551.879 54.0693 551.877V551.877Z" fill="#00497B"/>
<path d="M84.6493 255.42H70.9893C69.3324 255.42 67.9893 256.763 67.9893 258.42V309.1C67.9893 310.757 69.3324 312.1 70.9893 312.1H84.6493C86.3061 312.1 87.6493 310.757 87.6493 309.1V258.42C87.6493 256.763 86.3061 255.42 84.6493 255.42Z" fill="#E31F25"/>
<path d="M49.4795 276.93V290.59C49.4795 292.247 50.8226 293.59 52.4795 293.59H103.16C104.816 293.59 106.16 292.247 106.16 290.59V276.93C106.16 275.273 104.816 273.93 103.16 273.93H52.4795C50.8226 273.93 49.4795 275.273 49.4795 276.93Z" fill="#E31F25"/>
</g>
<defs>
<clipPath id="clip0_1879_7334">
<rect width="479.5" height="564.86" fill="white"/>
</clipPath>
</defs>
</svg>
